PathFileType	4	(X/Y/Z)	C:/Users/opensim2020/Desktop/walking_exp_matlab/subject03_walking11_straight_04.trc																																																																																																																																								
DataRate	CameraRate	NumFrames	NumMarkers	Units	OrigDataRate	OrigDataStartFrame	OrigNumFrames																																																																																																																																				
100	100	5	46	mm	100	4010	350																																																																																																																																				
Frame#	Time	LFHD			RFHD			LBHD			RBHD			C7			T10			CLAV			STRN			RBAK			LSHO			LUPA			LELB			LFRM			LWRA			LWRB			LFIN			RSHO			RUPA			RELB			RFRM			RWRA			RWRB			RFIN			LASI			RASI			LPSI			RPSI			LTHI			LKNE			LTIB			LANK			LHEE			LTOE			RTHI			RKNE			RTIB			RANK			RHEE			RTOE			*39			*40			*41			*42			*43			*44			*45		
		X1	Y1	Z1	X2	Y2	Z2	X3	Y3	Z3	X4	Y4	Z4	X5	Y5	Z5	X6	Y6	Z6	X7	Y7	Z7	X8	Y8	Z8	X9	Y9	Z9	X10	Y10	Z10	X11	Y11	Z11	X12	Y12	Z12	X13	Y13	Z13	X14	Y14	Z14	X15	Y15	Z15	X16	Y16	Z16	X17	Y17	Z17	X18	Y18	Z18	X19	Y19	Z19	X20	Y20	Z20	X21	Y21	Z21	X22	Y22	Z22	X23	Y23	Z23	X24	Y24	Z24	X25	Y25	Z25	X26	Y26	Z26	X27	Y27	Z27	X28	Y28	Z28	X29	Y29	Z29	X30	Y30	Z30	X31	Y31	Z31	X32	Y32	Z32	X33	Y33	Z33	X34	Y34	Z34	X35	Y35	Z35	X36	Y36	Z36	X37	Y37	Z37	X38	Y38	Z38	X39	Y39	Z39	X40	Y40	Z40	X41	Y41	Z41	X42	Y42	Z42	X43	Y43	Z43	X44	Y44	Z44	X45	Y45	Z45	X46	Y46	Z46
																																																																																																																																											
263	2.62	641.9502	1614.82117	952.02167	635.34528	1618.64185	1084.73108	524.37878	1548.15259	951.87952	522.69672	1552.46033	1082.51025	507.55716	1405.47839	1020.28595	463.70193	1094.33789	1027.21191	629.74921	1327.44019	1011.02649	662.95276	1159.36646	1007.25232	462.06631	1237.74231	1128.92163	573.5968	1361.35474	858.0661	538.46606	1162.896	795.37659	529.88788	1038.92773	788.21613	546.66895	909.61627	792.44543	561.75549	792.85168	826.46973	533.09363	796.47131	778.40936	543.52863	712.79987	791.71613	605.68292	1353.93933	1173.30811	639.47095	1135.32678	1247.00525	675.38257	1029.47156	1262.11963	726.9541	902.70599	1262.35449	782.16705	820.95074	1225.26294	752.96674	805.86743	1268.20557	795.83295	745.69202	1257.91919	626.34857	929.94366	903.22614	633.87775	927.60864	1140.78857	465.04321	945.53412	956.27081	472.4411	957.52625	1105.69043	627.07141	629.19806	852.56812	690.83704	463.27847	890.91003	695.36658	272.70496	880.95538	747.63708	65.96497	906.99097	719.48663	22.90614	946.49646	902.20984	56.45257	920.71594	550.62036	635.53003	1178.52319	532.16406	456.17465	1143.0271	443.50797	283.37106	1150.81506	361.99176	80.16789	1105.77441	308.85434	55.59281	1058.54517	496.43079	30.48993	1077.87817	547.8678	1660.27783	998.64929	NaN	NaN	NaN	NaN	NaN	NaN	NaN	NaN	NaN	NaN	NaN	NaN	NaN	NaN	NaN	NaN	NaN	NaN
264	2.63	648.43726	1614.54871	950.20093	641.56866	1618.396	1083.15076	530.89154	1547.65015	950.1156	528.99347	1552.03418	1080.75183	514.10034	1405.11292	1018.50061	470.6925	1093.88989	1025.26404	636.59833	1327.15894	1009.52502	670.06763	1159.17688	1005.94635	468.51028	1237.32715	1126.89502	580.85938	1361.02747	856.25696	545.08276	1162.31616	794.13898	537.0592	1038.4115	787.14349	552.73456	909.05798	791.8819	566.95032	792.04626	826.6947	538.69275	795.90961	778.14093	548.3371	712.13733	791.84711	611.89423	1353.69629	1171.6897	644.70917	1134.81348	1245.1394	680.19885	1028.74487	1260.06824	731.83606	902.04779	1259.88977	787.43713	820.68152	1222.60144	758.0415	805.21423	1265.27966	800.92987	745.07355	1254.67139	633.85388	929.54199	902.02789	640.34711	927.05365	1139.66882	472.388	945.43042	954.09406	478.92114	957.29401	1103.79517	634.72351	629.18573	852.02203	696.75171	462.61874	890.36273	698.29901	271.336	881.45093	748.96643	65.50189	906.9704	719.99854	23.49161	946.80951	903.76923	49.63267	922.04919	555.81543	635.22992	1177.57056	536.81311	455.88834	1142.44397	446.25488	283.94901	1150.38257	362.6344	81.38931	1105.67773	309.37073	57.38013	1058.60364	496.65527	30.46853	1077.97168	554.32202	1659.7887	996.87482	NaN	NaN	NaN	NaN	NaN	NaN	NaN	NaN	NaN	NaN	NaN	NaN	NaN	NaN	NaN	NaN	NaN	NaN
265	2.64	654.82056	1614.54663	948.54279	647.77655	1618.47266	1081.52185	537.43976	1547.30237	948.34235	535.35815	1551.78088	1078.96204	520.67194	1404.92224	1016.38226	477.83984	1093.5968	1023.05615	643.48254	1327.16492	1007.92377	677.11078	1159.23877	1004.62634	474.83923	1237.15894	1124.55127	588.11536	1360.84009	854.40112	552.22809	1162.02161	792.61359	543.23523	1038.00269	786.23999	559.02423	908.51477	791.21637	572.96356	791.72906	826.00378	544.51166	795.4162	777.77972	553.44128	711.55859	791.84198	617.91504	1353.5354	1170.06458	649.89966	1134.32861	1243.34106	684.86676	1028.04602	1258.16785	736.59094	901.37469	1257.4491	792.4964	820.31232	1219.89209	762.92035	804.53717	1262.30847	805.83386	744.43005	1251.41992	641.45129	929.41443	900.93372	646.8595	926.64349	1138.6449	479.53656	945.66437	952.10181	485.45047	957.04303	1101.80347	642.28711	629.86322	851.56378	701.17059	462.27704	889.88202	701.88531	270.90826	881.76666	752.72101	64.87083	906.35065	722.21307	24.95925	946.4494	906.72046	44.43882	923.26953	561.16956	634.98108	1176.56421	541.62634	455.69556	1141.64404	449.17899	284.66425	1149.80835	363.41034	83.0638	1105.82324	309.92068	59.49534	1058.78394	496.75201	30.11469	1078.11047	560.35596	1659.63977	995.11243	NaN	NaN	NaN	NaN	NaN	NaN	NaN	NaN	NaN	NaN	NaN	NaN	NaN	NaN	NaN	NaN	NaN	NaN
266	2.65	661.0686	1614.82043	947.0119	653.99951	1618.84229	1079.8988	543.93066	1547.33411	946.58759	541.68933	1551.77759	1077.13452	527.37787	1405.03833	1014.31317	484.98853	1093.69849	1021.12146	650.37836	1327.4425	1006.31372	684.10425	1159.48157	1003.26447	481.13202	1237.11047	1122.07825	595.53363	1360.80127	852.37976	559.3374	1161.75745	791.00073	550.60236	1037.74255	785.02618	565.56244	908.15515	790.50433	579.01807	791.40222	825.60626	550.61902	795.091	777.35101	558.90308	711.13086	791.75848	624.01727	1353.56458	1168.52563	654.96063	1134.00208	1241.54297	689.50281	1027.43311	1256.20117	741.17914	900.76715	1255.0238	797.25146	819.89124	1217.25122	767.37915	803.94452	1259.37439	810.40436	743.88226	1248.21399	649.15833	929.50494	899.91327	653.4986	926.32458	1137.57471	487.2547	945.94104	949.85565	492.22864	956.88867	1099.83008	649.66327	630.82977	851.177	705.30469	462.12222	888.89349	706.13464	271.12579	880.28864	756.15125	64.78409	904.7406	724.06818	26.51127	945.09711	909.74951	40.45892	924.64459	566.69598	634.95392	1175.49194	546.71979	455.67346	1140.8894	452.37253	285.58908	1149.21497	364.44244	84.71326	1105.63611	310.61304	61.88129	1058.63855	496.99045	30.11983	1078.14575	566.57013	1659.62488	993.09924	NaN	NaN	NaN	NaN	NaN	NaN	NaN	NaN	NaN	NaN	NaN	NaN	NaN	NaN	NaN	NaN	NaN	NaN
267	2.66	667.58142	1615.30847	945.07544	660.19092	1619.27258	1078.15857	550.53363	1547.55774	944.76715	548.07916	1552.04688	1075.30664	534.35382	1405.39526	1012.05243	492.10907	1093.78174	1019.15833	657.37146	1327.87305	1004.69281	691.2536	1159.89404	1001.86041	487.52097	1237.2002	1119.73499	603.12115	1360.83276	850.38702	566.53363	1161.69861	789.40778	557.5791	1037.59827	783.78748	572.26172	907.90631	789.69135	584.87756	791.12891	825.34161	556.9162	794.84485	776.81134	564.75165	710.98895	791.53473	630.27051	1353.81116	1166.91882	659.9704	1133.88635	1239.76453	694.04767	1027.04773	1254.2865	745.55444	900.26074	1252.59436	801.82294	819.74805	1214.64417	771.70422	803.42749	1256.50232	814.77039	743.41888	1245.0592	656.96722	929.9411	898.88666	660.12115	926.14954	1136.48523	494.64749	946.66858	948.0932	499.22198	956.93036	1097.96533	656.37592	631.47595	850.87366	709.67767	462.0452	887.81158	710.47534	271.02817	878.66992	759.31824	64.17535	904.45984	725.84094	27.53947	944.01971	912.63568	37.3581	925.17883	572.41449	635.07397	1174.3894	552.03381	455.77414	1140.09387	455.6564	286.6954	1148.59656	365.41083	86.79952	1105.50891	311.41916	64.55494	1058.27185	497.2103	30.03125	1078.20752	572.534	1659.91711	991.4433	NaN	NaN	NaN	NaN	NaN	NaN	NaN	NaN	NaN	NaN	NaN	NaN	NaN	NaN	NaN	NaN	NaN	NaN
